<svg width="184" height="25" viewBox="0 0 184 25" fill="none" xmlns="http://www.w3.org/2000/svg">
<path d="M4.68 2.488H11.976L16.752 19H11.112L10.488 15.832H6.216L5.52 19H0.12L4.68 2.488ZM9.912 12.88L8.352 5.656L6.72 12.88H9.912ZM22.1333 19.192C20.4533 19.192 18.9813 18.944 17.7173 18.448L18.2693 15.592C19.4213 16.008 20.5413 16.216 21.6293 16.216C22.4293 16.216 22.8293 15.992 22.8293 15.544C22.8293 15.32 22.7093 15.136 22.4693 14.992C22.2453 14.848 21.8133 14.72 21.1733 14.608C19.8453 14.352 18.8853 13.92 18.2933 13.312C17.7173 12.704 17.4293 11.84 17.4293 10.72C17.4933 9.456 17.9973 8.488 18.9413 7.816C19.8853 7.144 21.1733 6.808 22.8053 6.808C23.6373 6.808 24.3493 6.864 24.9413 6.976C25.5493 7.072 26.1013 7.24 26.5973 7.48L26.0933 10.336C25.6293 10.16 25.1173 10.024 24.5573 9.928C24.0133 9.832 23.5573 9.784 23.1893 9.784C22.6453 9.784 22.2693 9.84 22.0613 9.952C21.8533 10.064 21.7493 10.216 21.7493 10.408C21.7493 10.76 22.1493 11.008 22.9492 11.152C24.4053 11.408 25.4933 11.856 26.2133 12.496C26.9333 13.136 27.2933 14.008 27.2933 15.112C27.2933 16.376 26.8453 17.376 25.9493 18.112C25.0693 18.832 23.7973 19.192 22.1333 19.192ZM40.8992 19.192C39.8272 19.192 38.9632 19.056 38.3072 18.784C37.6672 18.496 37.1392 18.024 36.7232 17.368C36.3072 16.712 35.9392 15.776 35.6192 14.56L34.2032 15.688V19H29.1152L29.1392 3.184L34.2272 2.44L34.2032 10.648L40.3712 5.608L43.1312 9.376L39.2672 12.064C39.4592 13.28 39.7312 14.128 40.0832 14.608C40.4512 15.088 40.9872 15.328 41.6912 15.328C41.9792 15.328 42.3232 15.28 42.7232 15.184L42.2432 19.12C41.7632 19.168 41.3152 19.192 40.8992 19.192ZM49.3022 2.488H60.8942V6.136H55.1342V9.136H60.3902V12.16H55.1342V15.352H60.8942V19H49.3022V2.488ZM61.9459 6.976H67.5139L69.3619 14.176L71.1619 6.976H75.5539L71.7379 19H65.9059L61.9459 6.976ZM82.8848 19.192C81.5568 19.192 80.3728 18.928 79.3328 18.4C78.3088 17.856 77.5088 17.12 76.9328 16.192C76.3568 15.248 76.0688 14.184 76.0688 13C76.0688 11.784 76.3648 10.704 76.9568 9.76C77.5488 8.816 78.3488 8.088 79.3568 7.576C80.3648 7.064 81.4848 6.808 82.7168 6.808C83.9008 6.808 84.9088 7.072 85.7408 7.6C86.5888 8.112 87.2208 8.816 87.6368 9.712C88.0528 10.592 88.2608 11.584 88.2608 12.688C88.2608 12.976 88.2448 13.184 88.2128 13.312L81.0128 14.248C81.2048 14.808 81.5168 15.216 81.9488 15.472C82.3808 15.712 82.9488 15.832 83.6528 15.832C84.7408 15.832 85.9168 15.552 87.1808 14.992L87.7808 18.208C86.2928 18.864 84.6608 19.192 82.8848 19.192ZM84.5408 11.224C84.2848 10.216 83.6768 9.712 82.7168 9.712C82.1408 9.712 81.6848 9.928 81.3488 10.36C81.0128 10.792 80.8368 11.352 80.8208 12.04L84.5408 11.224ZM90.0047 7.144H95.0687V9.592C95.4367 8.648 95.9327 7.952 96.5567 7.504C97.1967 7.04 97.9407 6.808 98.7887 6.808L99.4847 10.72C97.9647 10.72 96.8447 10.888 96.1247 11.224C95.4207 11.544 95.0687 12.056 95.0687 12.76V19H90.0047V7.144ZM107.1 24.496C106.22 24.496 105.38 24.408 104.58 24.232L104.964 20.68C105.588 20.776 106.164 20.824 106.692 20.824C107.636 20.824 108.356 20.536 108.852 19.96C109.348 19.4 109.604 18.336 109.62 16.768C108.788 18.368 107.452 19.168 105.612 19.168C104.06 19.168 102.844 18.624 101.964 17.536C101.1 16.432 100.668 14.912 100.668 12.976V6.976H105.708V13.72C105.708 14.264 105.86 14.72 106.164 15.088C106.468 15.44 106.884 15.616 107.412 15.616C107.956 15.616 108.396 15.384 108.732 14.92C109.084 14.456 109.26 13.848 109.26 13.096V6.976H114.324V15.952C114.324 18.736 113.7 20.856 112.452 22.312C111.204 23.768 109.42 24.496 107.1 24.496ZM122.003 19.192C120.595 19.192 119.499 18.792 118.715 17.992C117.931 17.176 117.539 16.056 117.539 14.632V9.952H116.003V6.976H117.899L120.131 2.44H122.555V6.976H125.339V9.952H122.555V14.032C122.555 14.432 122.683 14.744 122.939 14.968C123.195 15.192 123.555 15.304 124.019 15.304C124.451 15.304 124.843 15.208 125.195 15.016L125.387 18.376C124.987 18.616 124.467 18.816 123.827 18.976C123.203 19.12 122.595 19.192 122.003 19.192ZM127.177 3.184L132.241 2.44V9.448C132.593 8.6 133.121 7.952 133.825 7.504C134.545 7.04 135.409 6.808 136.417 6.808C137.953 6.808 139.153 7.36 140.017 8.464C140.897 9.552 141.337 11.064 141.337 13V19H136.297V12.496C136.297 11.808 136.145 11.28 135.841 10.912C135.553 10.544 135.145 10.36 134.617 10.36C134.233 10.36 133.857 10.488 133.489 10.744C133.121 10.984 132.817 11.336 132.577 11.8C132.353 12.264 132.241 12.792 132.241 13.384V19H127.177V3.184ZM147.877 19.192C146.533 19.192 145.485 18.76 144.733 17.896C143.981 17.032 143.605 15.856 143.605 14.368V6.976H148.693V14.152C148.693 14.52 148.789 14.808 148.981 15.016C149.189 15.208 149.453 15.304 149.773 15.304C150.093 15.304 150.421 15.208 150.757 15.016L151.021 18.352C150.669 18.624 150.205 18.832 149.629 18.976C149.069 19.12 148.485 19.192 147.877 19.192ZM146.149 5.176C145.397 5.176 144.757 4.944 144.229 4.48C143.717 4 143.461 3.416 143.461 2.728C143.461 2.04 143.733 1.464 144.277 0.999999C144.821 0.535999 145.445 0.303999 146.149 0.303999C146.885 0.303999 147.517 0.543999 148.045 1.024C148.589 1.504 148.861 2.072 148.861 2.728C148.861 3.432 148.589 4.016 148.045 4.48C147.501 4.944 146.869 5.176 146.149 5.176ZM152.419 7.144H157.243V9.592C158.171 7.736 159.643 6.808 161.659 6.808C163.195 6.808 164.395 7.36 165.259 8.464C166.139 9.552 166.579 11.064 166.579 13V19H161.539V12.496C161.539 11.808 161.387 11.28 161.083 10.912C160.795 10.544 160.387 10.36 159.859 10.36C159.475 10.36 159.099 10.488 158.731 10.744C158.363 10.984 158.059 11.336 157.819 11.8C157.595 12.264 157.483 12.792 157.483 13.384V19H152.419V7.144ZM175.687 24.496C174.807 24.496 173.967 24.408 173.167 24.232L173.551 20.68C174.175 20.776 174.751 20.824 175.279 20.824C176.271 20.824 177.023 20.528 177.535 19.936C178.047 19.36 178.351 18.384 178.447 17.008C177.503 18.336 176.063 19 174.127 19C173.071 19 172.095 18.728 171.199 18.184C170.319 17.64 169.615 16.904 169.087 15.976C168.575 15.048 168.319 14.032 168.319 12.928C168.319 11.808 168.575 10.784 169.087 9.856C169.599 8.912 170.295 8.168 171.175 7.624C172.071 7.08 173.047 6.808 174.103 6.808C175.079 6.808 175.927 7.064 176.647 7.576C177.383 8.072 177.863 8.744 178.087 9.592V6.808H183.151V15.952C183.151 18.752 182.511 20.872 181.231 22.312C179.967 23.768 178.119 24.496 175.687 24.496ZM175.687 15.4C176.327 15.4 176.879 15.176 177.343 14.728C177.807 14.264 178.055 13.72 178.087 13.096V12.904C178.055 12.296 177.799 11.76 177.319 11.296C176.855 10.832 176.311 10.6 175.687 10.6C175.031 10.6 174.471 10.84 174.007 11.32C173.543 11.784 173.311 12.344 173.311 13C173.311 13.656 173.543 14.224 174.007 14.704C174.471 15.168 175.031 15.4 175.687 15.4Z" fill="white"/>
</svg>
